<svg width="35" height="35" viewBox="0 0 58 58" fill="none" xmlns="http://www.w3.org/2000/svg">
<path d="M29 0.5625C13.32 0.5625 0.5625 13.32 0.5625 29C0.5625 44.68 13.32 57.4375 29 57.4375C44.68 57.4375 57.4375 44.68 57.4375 29C57.4375 13.32 44.68 0.5625 29 0.5625ZM29 4.9375C42.3153 4.9375 53.0625 15.6847 53.0625 29C53.0625 42.3153 42.3153 53.0625 29 53.0625C15.6847 53.0625 4.9375 42.3153 4.9375 29C4.9375 15.6847 15.6847 4.9375 29 4.9375ZM26.8125 15.875V26.8125H15.875V31.1875H26.8125V42.125H31.1875V31.1875H42.125V26.8125H31.1875V15.875H26.8125Z" fill="#0A2C3D"/>
</svg>
