<svg width="70" height="70" viewBox="0 0 70 70" fill="none" xmlns="http://www.w3.org/2000/svg">
<path d="M30.6258 54.6875H61.2508V59.0625H30.6258V54.6875ZM15.6852 56.875L10.0414 62.5187L13.1258 65.625L21.8758 56.875L13.1258 48.125L10.0195 51.2094L15.6852 56.875ZM30.6258 32.8125H61.2508V37.1875H30.6258V32.8125ZM15.6852 35L10.0414 40.6437L13.1258 43.75L21.8758 35L13.1258 26.25L10.0195 29.3344L15.6852 35ZM30.6258 10.9375H61.2508V15.3125H30.6258V10.9375ZM15.6852 13.125L10.0414 18.7688L13.1258 21.875L21.8758 13.125L13.1258 4.375L10.0195 7.45938L15.6852 13.125Z" fill="#2789B9"/>
</svg>
