<svg width="70" height="70" viewBox="0 0 70 70" fill="none" xmlns="http://www.w3.org/2000/svg">
<path d="M26.25 37.9167C20.6646 37.9167 15.7413 40.7312 12.2733 44.4646C8.82583 48.1775 6.5625 53.0629 6.5625 57.6042C6.5625 58.8117 7.5425 59.7917 8.75 59.7917H43.75C44.3302 59.7917 44.8866 59.5612 45.2968 59.151C45.707 58.7407 45.9375 58.1843 45.9375 57.6042C45.9375 53.06 43.6771 48.1775 40.2267 44.4646C36.7558 40.7312 31.8354 37.9167 26.25 37.9167ZM50.1783 38.7946C49.6198 38.6368 49.0215 38.7073 48.515 38.9906C48.0085 39.274 47.6353 39.7469 47.4775 40.3054C47.3197 40.8639 47.3902 41.4622 47.6736 41.9687C47.9569 42.4752 48.4298 42.8484 48.9883 43.0062C51.7096 43.7762 54.2413 45.9783 56.1342 48.8804C58.0213 51.7825 59.0625 55.0696 59.0625 57.6012C59.0625 58.1814 59.293 58.7378 59.7032 59.148C60.1134 59.5583 60.6698 59.7887 61.25 59.7887C61.8302 59.7887 62.3866 59.5583 62.7968 59.148C63.207 58.7378 63.4375 58.1814 63.4375 57.6012C63.4375 54.0429 62.0433 49.9392 59.7975 46.4946C57.5546 43.05 54.2558 39.9496 50.1783 38.7946ZM26.25 10.2083C24.8137 10.2083 23.3914 10.4912 22.0644 11.0409C20.7374 11.5906 19.5317 12.3962 18.516 13.4118C17.5004 14.4275 16.6947 15.6332 16.1451 16.9602C15.5954 18.2872 15.3125 19.7095 15.3125 21.1458C15.3125 22.5822 15.5954 24.0044 16.1451 25.3314C16.6947 26.6584 17.5004 27.8642 18.516 28.8798C19.5317 29.8954 20.7374 30.7011 22.0644 31.2508C23.3914 31.8004 24.8137 32.0833 26.25 32.0833C29.1508 32.0833 31.9328 30.931 33.984 28.8798C36.0352 26.8286 37.1875 24.0466 37.1875 21.1458C37.1875 18.245 36.0352 15.463 33.984 13.4118C31.9328 11.3607 29.1508 10.2083 26.25 10.2083ZM43.75 10.2083C43.1698 10.2083 42.6134 10.4388 42.2032 10.849C41.793 11.2593 41.5625 11.8157 41.5625 12.3958V29.8958C41.5625 31.1033 42.5425 32.0833 43.75 32.0833C45.1863 32.0833 46.6086 31.8004 47.9356 31.2508C49.2626 30.7011 50.4683 29.8954 51.484 28.8798C52.4996 27.8642 53.3053 26.6584 53.8549 25.3314C54.4046 24.0044 54.6875 22.5822 54.6875 21.1458C54.6875 19.7095 54.4046 18.2872 53.8549 16.9602C53.3053 15.6332 52.4996 14.4275 51.484 13.4118C50.4683 12.3962 49.2626 11.5906 47.9356 11.0409C46.6086 10.4912 45.1863 10.2083 43.75 10.2083Z" fill="#2789B9"/>
</svg>
