<svg width="65" height="65" viewBox="0 0 65 65" fill="none" xmlns="http://www.w3.org/2000/svg">
<path d="M63.277 57.4173L63.277 57.4173C64.0551 58.1954 64.4923 59.2507 64.4923 60.3511C64.4923 61.4514 64.0551 62.5067 63.277 63.2848C62.4989 64.0629 61.4435 64.5 60.3431 64.5C59.2426 64.5 58.1873 64.0629 57.4092 63.2848C57.4092 63.2848 57.4091 63.2848 57.4091 63.2848L32.8536 38.723L32.5001 38.3694L32.1465 38.7229L7.5832 63.277L7.58315 63.2771C6.80502 64.0551 5.74965 64.4923 4.64921 64.4923C3.54876 64.4923 2.49339 64.0551 1.71526 63.2771C0.937141 62.499 0.5 61.4437 0.5 60.3433C0.5 59.243 0.937141 58.1877 1.71526 57.4096L26.2785 32.8556L26.6322 32.502L26.2786 32.1484L1.72305 7.58657L1.723 7.58652C0.944875 6.80844 0.507735 5.75315 0.507735 4.6528C0.507735 3.55244 0.944875 2.49715 1.723 1.71907C2.50112 0.940992 3.55649 0.503867 4.65694 0.503867C5.75736 0.503867 6.81271 0.940972 7.59083 1.71902C7.59085 1.71903 7.59087 1.71905 7.59088 1.71907L32.1464 26.2809L32.5 26.6345L32.8536 26.2809L57.4169 1.7152C58.195 0.937125 59.2504 0.5 60.3508 0.5C61.4512 0.5 62.5066 0.937124 63.2847 1.7152C64.0629 2.49328 64.5 3.54857 64.5 4.64893C64.5 5.74928 64.0629 6.80458 63.2847 7.58265L63.2847 7.58268L38.7214 32.1484L38.3679 32.5019L38.7214 32.8554L63.277 57.4173Z" fill="#6BA57D" stroke="#6BA57D"/>
</svg>
