<svg width="90" height="100" viewBox="0 0 90 100" fill="none" xmlns="http://www.w3.org/2000/svg">
<path d="M88.1038 87.7904C89.3111 89.1317 89.9893 90.9509 89.9893 92.8478C89.9893 94.7447 89.3111 96.5639 88.1038 97.9052C86.8966 99.2465 85.2592 100 83.5519 100C81.8446 100 80.2073 99.2465 79 97.9052L45 60.1177L10.9893 97.8933C9.78202 99.2346 8.14466 99.9881 6.43736 99.9881C4.73007 99.9881 3.0927 99.2346 1.88546 97.8933C0.678221 96.552 1.79893e-08 94.7328 0 92.8359C-1.79893e-08 90.939 0.678221 89.1198 1.88546 87.7785L35.8962 50.003L1.89617 12.2155C0.688929 10.8742 0.0107106 9.05503 0.0107106 7.15815C0.0107106 5.26127 0.688929 3.44208 1.89617 2.10078C3.10341 0.759483 4.74078 0.00594886 6.44807 0.00594884C8.15536 0.00594882 9.79273 0.759483 11 2.10078L45 39.8882L79.0107 2.09483C80.218 0.753532 81.8553 -3.1602e-08 83.5626 0C85.2699 3.1602e-08 86.9073 0.753532 88.1145 2.09483C89.3218 3.43613 90 5.25531 90 7.1522C90 9.04908 89.3218 10.8683 88.1145 12.2096L54.1038 50.003L88.1038 87.7904Z" fill="#B34983"/>
</svg>
