<svg width="57" height="57" viewBox="0 0 57 57" fill="none" xmlns="http://www.w3.org/2000/svg">
<path d="M37.0497 28.5C37.0497 30.7676 36.1488 32.9423 34.5454 34.5458C32.942 36.1492 30.7673 37.05 28.4997 37.05C26.232 37.05 24.0573 36.1492 22.4539 34.5458C20.8505 32.9423 19.9496 30.7676 19.9496 28.5C19.9515 28.0117 19.9981 27.5367 20.0893 27.075H17.0996V38.4665C17.0996 39.2588 17.7409 39.9 18.5332 39.9H38.469C38.8487 39.8993 39.2126 39.7479 39.4808 39.4791C39.749 39.2104 39.8997 38.8462 39.8997 38.4665V27.075H36.91C37.0012 27.5367 37.0478 28.0117 37.0497 28.5ZM28.4997 34.2C29.2484 34.1998 29.9897 34.0522 30.6814 33.7655C31.373 33.4788 32.0015 33.0587 32.5308 32.5291C33.06 31.9995 33.4799 31.3709 33.7662 30.6791C34.0526 29.9873 34.1998 29.2459 34.1996 28.4972C34.1995 27.7484 34.0518 27.0071 33.7651 26.3154C33.4784 25.6238 33.0583 24.9954 32.5287 24.4661C31.9992 23.9368 31.3706 23.517 30.6787 23.2306C29.9869 22.9443 29.2455 22.797 28.4968 22.7972C26.9847 22.7975 25.5347 23.3986 24.4657 24.4681C23.3967 25.5376 22.7964 26.9879 22.7968 28.5C22.7972 30.0121 23.3982 31.4622 24.4677 32.5311C25.5372 33.6001 26.9875 34.2004 28.4997 34.2ZM35.3396 22.515H38.7568C38.8693 22.5154 38.9808 22.4936 39.0849 22.4508C39.1889 22.408 39.2835 22.345 39.3632 22.2656C39.4429 22.1862 39.5061 22.0918 39.5493 21.9879C39.5924 21.8839 39.6147 21.7725 39.6147 21.66V18.2429C39.615 18.1301 39.5931 18.0184 39.5501 17.9141C39.5071 17.8099 39.444 17.7152 39.3642 17.6354C39.2845 17.5557 39.1898 17.4925 39.0855 17.4495C38.9813 17.4066 38.8696 17.3846 38.7568 17.385H35.3396C35.2269 17.3846 35.1152 17.4066 35.0109 17.4495C34.9067 17.4925 34.812 17.5557 34.7322 17.6354C34.6525 17.7152 34.5893 17.8099 34.5463 17.9141C34.5034 18.0184 34.4814 18.1301 34.4818 18.2429V21.66C34.4846 22.1303 34.8694 22.515 35.3396 22.515ZM28.4997 1.14001C21.2433 1.14001 14.2842 4.02258 9.15321 9.15357C4.02221 14.2846 1.13965 21.2437 1.13965 28.5C1.13965 35.7563 4.02221 42.7155 9.15321 47.8465C14.2842 52.9775 21.2433 55.86 28.4997 55.86C32.0926 55.86 35.6504 55.1523 38.9699 53.7774C42.2893 52.4024 45.3055 50.3871 47.8461 47.8465C50.3867 45.3058 52.402 42.2897 53.777 38.9702C55.152 35.6508 55.8597 32.093 55.8597 28.5C55.8597 24.9071 55.152 21.3493 53.777 18.0298C52.402 14.7103 50.3867 11.6942 47.8461 9.15357C45.3055 6.61296 42.2893 4.59764 38.9699 3.22267C35.6504 1.8477 32.0926 1.14001 28.4997 1.14001ZM42.7497 39.5837C42.7497 41.325 41.3246 42.75 39.5833 42.75H17.416C15.6746 42.75 14.2496 41.325 14.2496 39.5837V17.4164C14.2496 15.675 15.6746 14.25 17.416 14.25H39.5833C41.3246 14.25 42.7497 15.675 42.7497 17.4164V39.5837Z" fill="#8F9753"/>
</svg>
