<svg width="55" height="55" viewBox="0 0 55 55" fill="none" xmlns="http://www.w3.org/2000/svg">
<mask id="mask0_756_430" style="mask-type:luminance" maskUnits="userSpaceOnUse" x="8" y="2" width="39" height="51">
<path d="M27.5 50.4168C27.5 50.4168 44.6875 36.6668 44.6875 21.771C44.6875 12.2789 36.9921 4.5835 27.5 4.5835C18.0079 4.5835 10.3125 12.2789 10.3125 21.771C10.3125 36.6668 27.5 50.4168 27.5 50.4168Z" fill="white" stroke="white" stroke-width="4.16667" stroke-linejoin="round"/>
<path d="M27.5 28.646C28.4028 28.646 29.2968 28.4682 30.1309 28.1227C30.9651 27.7772 31.723 27.2708 32.3614 26.6324C32.9998 25.994 33.5062 25.2361 33.8517 24.4019C34.1972 23.5678 34.375 22.6738 34.375 21.771C34.375 20.8682 34.1972 19.9742 33.8517 19.14C33.5062 18.3059 32.9998 17.548 32.3614 16.9096C31.723 16.2712 30.9651 15.7648 30.1309 15.4193C29.2968 15.0738 28.4028 14.896 27.5 14.896C25.6766 14.896 23.928 15.6203 22.6386 16.9096C21.3493 18.1989 20.625 19.9476 20.625 21.771C20.625 23.5944 21.3493 25.343 22.6386 26.6324C23.928 27.9217 25.6766 28.646 27.5 28.646Z" fill="black" stroke="black" stroke-width="4.16667" stroke-linejoin="round"/>
</mask>
<g mask="url(#mask0_756_430)">
<path d="M0 0H55V55H0V0Z" fill="#0A2C3D"/>
</g>
</svg>
