<svg width="57" height="57" viewBox="0 0 57 57" fill="none" xmlns="http://www.w3.org/2000/svg">
<mask id="mask0_114_15" style="mask-type:luminance" maskUnits="userSpaceOnUse" x="8" y="2" width="41" height="53">
<path d="M28.5 52.25C28.5 52.25 46.3125 38 46.3125 22.5625C46.3125 12.7252 38.3372 4.75 28.5 4.75C18.6627 4.75 10.6875 12.7252 10.6875 22.5625C10.6875 38 28.5 52.25 28.5 52.25Z" fill="white" stroke="white" stroke-width="4.16667" stroke-linejoin="round"/>
<path d="M28.5 29.6875C29.4357 29.6875 30.3622 29.5032 31.2266 29.1451C32.0911 28.7871 32.8765 28.2623 33.5381 27.6006C34.1998 26.939 34.7246 26.1536 35.0826 25.2891C35.4407 24.4247 35.625 23.4982 35.625 22.5625C35.625 21.6268 35.4407 20.7003 35.0826 19.8359C34.7246 18.9714 34.1998 18.186 33.5381 17.5244C32.8765 16.8627 32.0911 16.3379 31.2266 15.9799C30.3622 15.6218 29.4357 15.4375 28.5 15.4375C26.6103 15.4375 24.7981 16.1882 23.4619 17.5244C22.1257 18.8606 21.375 20.6728 21.375 22.5625C21.375 24.4522 22.1257 26.2644 23.4619 27.6006C24.7981 28.9368 26.6103 29.6875 28.5 29.6875Z" fill="black" stroke="black" stroke-width="4.16667" stroke-linejoin="round"/>
</mask>
<g mask="url(#mask0_114_15)">
<path d="M0 0H57V57H0V0Z" fill="#8F9753"/>
</g>
</svg>
