<svg width="65" height="65" viewBox="0 0 65 65" fill="none" xmlns="http://www.w3.org/2000/svg">
<path d="M32.5007 37.9167V43.3333C28.1909 43.3333 24.0576 45.0454 21.0102 48.0929C17.9627 51.1403 16.2507 55.2736 16.2507 59.5833H10.834C10.834 53.837 13.1167 48.326 17.18 44.2627C21.2433 40.1994 26.7543 37.9167 32.5007 37.9167ZM32.5007 35.2083C23.5225 35.2083 16.2507 27.9365 16.2507 18.9583C16.2507 9.98022 23.5225 2.70834 32.5007 2.70834C41.4788 2.70834 48.7506 9.98022 48.7506 18.9583C48.7506 27.9365 41.4788 35.2083 32.5007 35.2083ZM32.5007 29.7917C38.4861 29.7917 43.334 24.9438 43.334 18.9583C43.334 12.9729 38.4861 8.12501 32.5007 8.12501C26.5152 8.12501 21.6673 12.9729 21.6673 18.9583C21.6673 24.9438 26.5152 29.7917 32.5007 29.7917ZM56.8756 46.0417H59.584V59.5833H37.9173V46.0417H40.6257V43.3333C40.6257 41.1785 41.4817 39.1118 43.0054 37.5881C44.5291 36.0644 46.5958 35.2083 48.7506 35.2083C50.9055 35.2083 52.9722 36.0644 54.4959 37.5881C56.0196 39.1118 56.8756 41.1785 56.8756 43.3333V46.0417ZM51.459 46.0417V43.3333C51.459 42.615 51.1736 41.9262 50.6657 41.4183C50.1578 40.9104 49.4689 40.625 48.7506 40.625C48.0324 40.625 47.3435 40.9104 46.8356 41.4183C46.3277 41.9262 46.0423 42.615 46.0423 43.3333V46.0417H51.459Z" fill="#2789B9"/>
</svg>
