<svg width="70" height="70" viewBox="0 0 70 70" fill="none" xmlns="http://www.w3.org/2000/svg">
<path d="M30.625 52.5342V31.9922L8.75 21.0547V51.1328L27.3438 60.4639L26.2842 64.8047L4.375 53.8672V16.1328L32.8125 1.94824L61.25 16.1328V25.3613C59.6549 25.612 58.1966 26.1247 56.875 26.8994V21.0547L35 31.9922V48.1592L30.625 52.5342ZM25.7715 10.3223L45.7324 21.7383L54.1748 17.5L32.8125 6.80176L25.7715 10.3223ZM32.8125 28.1982L41.0156 24.0967L21.0547 12.6807L11.4502 17.5L32.8125 28.1982ZM63.1641 30.625C64.1211 30.625 65.0098 30.7959 65.8301 31.1377C66.6504 31.4795 67.3796 31.9466 68.0176 32.5391C68.6556 33.1315 69.1341 33.8493 69.4531 34.6924C69.7721 35.5355 69.9544 36.4355 70 37.3926C70 38.2812 69.8291 39.1471 69.4873 39.9902C69.1455 40.8333 68.6556 41.5739 68.0176 42.2119L43.5107 66.7188L30.625 69.9316L33.8379 57.0459L58.3447 32.5732C59.0055 31.9124 59.7461 31.4225 60.5664 31.1035C61.3867 30.7845 62.2526 30.625 63.1641 30.625ZM64.9072 39.1357C65.3857 38.6572 65.625 38.0762 65.625 37.3926C65.625 36.6862 65.3971 36.1165 64.9414 35.6836C64.4857 35.2507 63.8932 35.0228 63.1641 35C62.8451 35 62.5374 35.0456 62.2412 35.1367C61.945 35.2279 61.6829 35.3988 61.4551 35.6494L37.8027 59.3018L36.6406 63.916L41.2549 62.7539L64.9072 39.1357Z" fill="#2789B9"/>
</svg>
