<svg width="15" height="15" viewBox="0 0 70 70" fill="none" xmlns="http://www.w3.org/2000/svg">
<path d="M67.5331 42C67.8584 41.9995 68.1806 42.0635 68.4811 42.1882C68.7816 42.3129 69.0545 42.4959 69.2839 42.7266C69.5133 42.9573 69.6947 43.2312 69.8177 43.5324C69.9407 43.8336 70.0029 44.1562 70.0006 44.4815V55.6955C70.0029 56.0194 69.9413 56.3405 69.8194 56.6406C69.6975 56.9406 69.5176 57.2137 69.29 57.4442C69.0625 57.6747 68.7917 57.858 68.4933 57.9838C68.1948 58.1095 67.8744 58.1752 67.5506 58.177C67.2267 58.1752 66.9064 58.1095 66.6079 57.9838C66.3094 57.858 66.0387 57.6747 65.8111 57.4442C65.5836 57.2137 65.4037 56.9406 65.2818 56.6406C65.1598 56.3405 65.0983 56.0194 65.1006 55.6955V51.758C58.7271 62.454 46.8971 70 34.1501 70C18.7151 70 5.77907 60.4765 0.168571 45.7975C-0.0689025 45.1861 -0.0549926 44.5055 0.207267 43.9043C0.469527 43.3031 0.958864 42.8299 1.56857 42.588C2.82857 42.0945 4.24957 42.728 4.73957 44.0055C9.63957 56.8225 20.7976 65.0405 34.1501 65.0405C45.9486 65.0405 56.9701 57.4035 62.1046 47.0015L56.9561 47.0365C56.6322 47.037 56.3114 46.9736 56.0121 46.8499C55.7127 46.7263 55.4407 46.5449 55.2115 46.3161C54.9823 46.0872 54.8005 45.8154 54.6765 45.5162C54.5524 45.2171 54.4886 44.8964 54.4886 44.5725C54.4802 43.9187 54.7316 43.2882 55.1877 42.8197C55.6438 42.3511 56.2672 42.0827 56.9211 42.0735L67.5331 42ZM35.8581 0C51.2861 0 64.2256 9.5235 69.8361 24.2025C70.0735 24.8139 70.0596 25.4945 69.7974 26.0957C69.5351 26.6969 69.0458 27.1701 68.4361 27.412C68.135 27.5294 67.8136 27.5858 67.4905 27.578C67.1675 27.5702 66.8492 27.4982 66.5542 27.3663C66.2591 27.2344 65.9933 27.0453 65.772 26.8098C65.5507 26.5743 65.3784 26.2971 65.2651 25.9945C60.3651 13.1775 49.2071 4.9595 35.8546 4.9595C24.0561 4.9595 13.0346 12.5965 7.90007 22.9985L13.0486 22.9635C13.3724 22.963 13.6932 23.0264 13.9926 23.1501C14.2919 23.2737 14.564 23.4551 14.7931 23.684C15.0223 23.9128 15.2041 24.1846 15.3282 24.4838C15.4522 24.7829 15.5161 25.1036 15.5161 25.4275C15.5245 26.0813 15.273 26.7118 14.8169 27.1803C14.3608 27.6489 13.7374 27.9173 13.0836 27.9265L2.46807 28C2.14272 28.0005 1.8205 27.9365 1.52 27.8118C1.2195 27.6871 0.946681 27.5041 0.717276 27.2734C0.487871 27.0427 0.306426 26.7688 0.183415 26.4676C0.0604032 26.1664 -0.00174027 25.8438 0.000570791 25.5185V14.3045C0.000570791 12.9325 1.09607 11.823 2.45057 11.823C3.80507 11.823 4.90057 12.9325 4.90057 14.3045V18.242C11.2741 7.546 23.1041 0 35.8511 0" fill="#6BA57D"/>
</svg>
