<svg width="70" height="70" viewBox="0 0 70 70" fill="none" xmlns="http://www.w3.org/2000/svg">
<path d="M23.3327 14.5833H17.4993C15.9523 14.5833 14.4685 15.1979 13.3746 16.2919C12.2806 17.3858 11.666 18.8696 11.666 20.4167V55.4167C11.666 56.9638 12.2806 58.4475 13.3746 59.5415C14.4685 60.6354 15.9523 61.25 17.4993 61.25H34.1156M52.4994 40.8333V52.5H64.166M52.4994 32.0833V20.4167C52.4994 18.8696 51.8848 17.3858 50.7908 16.2919C49.6968 15.1979 48.2131 14.5833 46.666 14.5833H40.8327" stroke="#2789B9" stroke-width="5.83333" stroke-linecap="round" stroke-linejoin="round"/>
<path d="M23.332 32.0833H34.9987M23.332 43.75H32.082M23.332 14.5833C23.332 13.0362 23.9466 11.5525 25.0406 10.4585C26.1345 9.36458 27.6183 8.75 29.1654 8.75H34.9987C36.5458 8.75 38.0295 9.36458 39.1235 10.4585C40.2174 11.5525 40.832 13.0362 40.832 14.5833C40.832 16.1304 40.2174 17.6142 39.1235 18.7081C38.0295 19.8021 36.5458 20.4167 34.9987 20.4167H29.1654C27.6183 20.4167 26.1345 19.8021 25.0406 18.7081C23.9466 17.6142 23.332 16.1304 23.332 14.5833ZM40.832 52.5C40.832 55.5942 42.0612 58.5617 44.2491 60.7496C46.437 62.9375 49.4045 64.1667 52.4987 64.1667C55.5929 64.1667 58.5604 62.9375 60.7483 60.7496C62.9362 58.5617 64.1654 55.5942 64.1654 52.5C64.1654 49.4058 62.9362 46.4383 60.7483 44.2504C58.5604 42.0625 55.5929 40.8333 52.4987 40.8333C49.4045 40.8333 46.437 42.0625 44.2491 44.2504C42.0612 46.4383 40.832 49.4058 40.832 52.5Z" stroke="#2789B9" stroke-width="5.83333" stroke-linecap="round" stroke-linejoin="round"/>
</svg>
