<svg width="32" height="28" viewBox="0 0 32 28" fill="none" xmlns="http://www.w3.org/2000/svg">
<path d="M0 1.3125C0 0.585156 0.599528 0 1.34474 0H3.89413C5.12681 0 6.21941 0.7 6.72929 1.75H29.7579C31.2315 1.75 32.3073 3.11719 31.9207 4.50625L29.6234 12.8352C29.1472 14.5523 27.5503 15.75 25.7293 15.75H9.56444L9.86701 17.3086C9.99027 17.9266 10.545 18.375 11.1893 18.375H27.343C28.0882 18.375 28.6877 18.9602 28.6877 19.6875C28.6877 20.4148 28.0882 21 27.343 21H11.1893C9.25067 21 7.58656 19.6547 7.22796 17.8008L4.33678 2.98047C4.29755 2.77266 4.11265 2.625 3.89413 2.625H1.34474C0.599528 2.625 0 2.03984 0 1.3125ZM7.17193 25.375C7.17193 25.0303 7.24149 24.6889 7.37665 24.3705C7.51181 24.052 7.70992 23.7626 7.95966 23.5188C8.2094 23.2751 8.50588 23.0817 8.83219 22.9498C9.15849 22.8179 9.50822 22.75 9.8614 22.75C10.2146 22.75 10.5643 22.8179 10.8906 22.9498C11.2169 23.0817 11.5134 23.2751 11.7631 23.5188C12.0129 23.7626 12.211 24.052 12.3462 24.3705C12.4813 24.6889 12.5509 25.0303 12.5509 25.375C12.5509 25.7197 12.4813 26.0611 12.3462 26.3795C12.211 26.698 12.0129 26.9874 11.7631 27.2312C11.5134 27.4749 11.2169 27.6683 10.8906 27.8002C10.5643 27.9321 10.2146 28 9.8614 28C9.50822 28 9.15849 27.9321 8.83219 27.8002C8.50588 27.6683 8.2094 27.4749 7.95966 27.2312C7.70992 26.9874 7.51181 26.698 7.37665 26.3795C7.24149 26.0611 7.17193 25.7197 7.17193 25.375ZM25.9982 22.75C26.7115 22.75 27.3956 23.0266 27.9 23.5188C28.4044 24.0111 28.6877 24.6788 28.6877 25.375C28.6877 26.0712 28.4044 26.7389 27.9 27.2312C27.3956 27.7234 26.7115 28 25.9982 28C25.285 28 24.6009 27.7234 24.0965 27.2312C23.5921 26.7389 23.3088 26.0712 23.3088 25.375C23.3088 24.6788 23.5921 24.0111 24.0965 23.5188C24.6009 23.0266 25.285 22.75 25.9982 22.75Z" fill="#0A2C3D"/>
</svg>
