<svg width="57" height="57" viewBox="0 0 57 57" fill="none" xmlns="http://www.w3.org/2000/svg">
<rect width="57" height="57" rx="28.5" fill="#8F9753"/>
<path d="M11.2124 45.081L13.6561 36.2071C12.1453 33.6025 11.3528 30.6527 11.361 27.6372C11.361 18.1882 19.0884 10.5057 28.5744 10.5057C33.1811 10.5057 37.5071 12.2887 40.7517 15.526C44.0044 18.7633 45.796 23.0688 45.7877 27.6454C45.7877 37.0945 38.0603 44.777 28.5661 44.777H28.5578C25.6766 44.777 22.8448 44.0539 20.3268 42.69L11.2124 45.081ZM20.7644 39.5923L21.2845 39.9046C23.4805 41.2028 25.9985 41.8848 28.5661 41.893H28.5744C36.4586 41.893 42.8817 35.5087 42.8817 27.6537C42.8817 23.8494 41.3956 20.2752 38.696 17.5801C35.9963 14.8851 32.3968 13.4061 28.5744 13.4061C20.6901 13.3979 14.267 19.7822 14.267 27.6372C14.267 30.324 15.0183 32.9451 16.4548 35.2129L16.7933 35.7552L15.3486 41.0056L20.7644 39.5923Z" fill="white"/>
<path d="M11.8152 44.4812L14.1763 35.9113C12.7151 33.4053 11.9473 30.5541 11.9473 27.6454C11.9555 18.525 19.4105 11.1055 28.5745 11.1055C33.0243 11.1055 37.1935 12.831 40.3307 15.9533C43.4679 19.0756 45.1934 23.2331 45.1934 27.6537C45.1934 36.7741 37.7301 44.1936 28.5745 44.1936H28.5662C25.784 44.1936 23.0513 43.4952 20.6241 42.1806L11.8152 44.4812Z" fill="#8F9753"/>
<path d="M11.2124 45.081L13.6561 36.2071C12.1453 33.6025 11.3528 30.6527 11.361 27.6372C11.361 18.1882 19.0884 10.5057 28.5744 10.5057C33.1811 10.5057 37.5071 12.2887 40.7517 15.526C44.0044 18.7633 45.796 23.0688 45.7877 27.6454C45.7877 37.0945 38.0603 44.777 28.5661 44.777H28.5578C25.6766 44.777 22.8448 44.0539 20.3268 42.69L11.2124 45.081ZM20.7644 39.5923L21.2845 39.9046C23.4805 41.2028 25.9985 41.8848 28.5661 41.893H28.5744C36.4586 41.893 42.8817 35.5087 42.8817 27.6537C42.8817 23.8494 41.3956 20.2752 38.696 17.5801C35.9963 14.8851 32.3968 13.4061 28.5744 13.4061C20.6901 13.3979 14.267 19.7822 14.267 27.6372C14.267 30.324 15.0183 32.9451 16.4548 35.2129L16.7933 35.7552L15.3486 41.0056L20.7644 39.5923Z" fill="url(#paint0_linear_73_103)"/>
<path fill-rule="evenodd" clip-rule="evenodd" d="M24.2729 20.4724C23.9509 19.7575 23.6125 19.7411 23.307 19.7329C23.0593 19.7247 22.7704 19.7247 22.4814 19.7247C22.1925 19.7247 21.7301 19.8315 21.3339 20.2587C20.9376 20.686 19.8313 21.7213 19.8313 23.833C19.8313 25.9364 21.3751 27.9741 21.5898 28.2617C21.8044 28.5493 24.5701 33.0109 28.9374 34.7281C32.57 36.1578 33.313 35.8702 34.0973 35.7963C34.8816 35.7223 36.6401 34.761 37.0034 33.7586C37.3584 32.7562 37.3584 31.9016 37.251 31.7209C37.1437 31.5401 36.8548 31.4333 36.4255 31.2197C35.9962 31.006 33.8827 29.9707 33.4864 29.8228C33.0901 29.6832 32.8012 29.6092 32.5205 30.0365C32.2315 30.4637 31.4059 31.4251 31.1583 31.7126C30.9106 32.0002 30.6547 32.0331 30.2254 31.8195C29.7961 31.6058 28.4091 31.1539 26.7662 29.6914C25.4865 28.5575 24.6197 27.1525 24.372 26.7252C24.1243 26.2979 24.3472 26.0679 24.5619 25.8542C24.7518 25.6653 24.9912 25.353 25.2058 25.1065C25.4205 24.86 25.4948 24.6793 25.6351 24.3917C25.7755 24.1041 25.7094 23.8576 25.6021 23.644C25.4948 23.4386 24.6527 21.3187 24.2729 20.4724Z" fill="white"/>
<defs>
<linearGradient id="paint0_linear_73_103" x1="28.5034" y1="45.0777" x2="28.5034" y2="10.5057" gradientUnits="userSpaceOnUse">
<stop stop-color="#F9F9F9"/>
<stop offset="1" stop-color="white"/>
</linearGradient>
</defs>
</svg>
