<svg width="105" height="106" viewBox="0 0 105 106" fill="none" xmlns="http://www.w3.org/2000/svg">
<path d="M2.24276 52.3656C2.2403 61.2717 4.56333 69.9678 8.98055 77.6327L1.82031 103.821L28.5746 96.794C35.9745 100.829 44.2655 102.944 52.6909 102.944H52.713C80.5267 102.944 103.168 80.2724 103.18 52.4055C103.185 38.902 97.9401 26.2042 88.4109 16.651C78.8833 7.0987 66.212 1.83526 52.711 1.8291C24.894 1.8291 2.25465 24.5 2.24317 52.3656" fill="url(#paint0_linear_570_396)"/>
<path d="M0.440804 52.3492C0.437933 61.5757 2.84423 70.5829 7.41894 78.5222L0.00195312 105.65L27.7156 98.3705C35.3516 102.541 43.9489 104.74 52.6972 104.743H52.7198C81.5314 104.743 104.986 81.2556 104.998 52.3911C105.003 38.4024 99.5694 25.2481 89.6997 15.3527C79.8289 5.45859 66.7044 0.00575194 52.7198 0C23.9033 0 0.452288 23.4843 0.440804 52.3492ZM16.9453 77.1549L15.9105 75.5094C11.5605 68.5808 9.26457 60.5741 9.26785 52.3525C9.27688 28.3608 28.7684 8.84155 52.7362 8.84155C64.3432 8.84648 75.2513 13.379 83.4557 21.6026C91.6598 29.8271 96.1742 40.7599 96.1713 52.3878C96.1607 76.3796 76.6687 95.9012 52.7198 95.9012H52.7026C44.9046 95.8971 37.2567 93.7993 30.587 89.835L28.9997 88.8921L12.5539 93.2114L16.9453 77.1549Z" fill="url(#paint1_linear_570_396)"/>
<path d="M39.654 30.4639C38.6754 28.2851 37.6455 28.2411 36.7149 28.2029C35.9529 28.1701 35.0817 28.1725 34.2114 28.1725C33.3403 28.1725 31.9249 28.5008 30.7285 29.8094C29.5309 31.1192 26.1562 34.2844 26.1562 40.722C26.1562 47.1597 30.8372 53.3816 31.4897 54.2555C32.1431 55.1278 40.5263 68.7615 53.8034 74.0064C64.8378 78.3652 67.0834 77.4983 69.4782 77.2797C71.8734 77.0619 77.2069 74.1153 78.295 71.0598C79.3839 68.0047 79.3839 65.3859 79.0574 64.8387C78.731 64.2935 77.8598 63.966 76.5535 63.3119C75.2472 62.6579 68.8248 59.4918 67.6276 59.0551C66.43 58.6188 65.5593 58.401 64.6881 59.7112C63.817 61.0194 61.3156 63.966 60.5531 64.8387C59.7915 65.7134 59.029 65.8223 57.7231 65.1678C56.416 64.5112 52.2092 63.1312 47.2182 58.6738C43.335 55.2054 40.7134 50.9223 39.9513 49.6121C39.1893 48.3039 39.8697 47.5948 40.5247 46.9427C41.1116 46.3565 41.8314 45.4148 42.4852 44.651C43.1365 43.8868 43.3539 43.3416 43.7894 42.469C44.2254 41.5955 44.0072 40.8313 43.6812 40.1768C43.3539 39.5223 40.8155 33.051 39.654 30.4639Z" fill="white"/>
<defs>
<linearGradient id="paint0_linear_570_396" x1="5069.79" y1="10201" x2="5069.79" y2="1.8291" gradientUnits="userSpaceOnUse">
<stop stop-color="#1FAF38"/>
<stop offset="1" stop-color="#60D669"/>
</linearGradient>
<linearGradient id="paint1_linear_570_396" x1="5249.8" y1="10565" x2="5249.8" y2="0" gradientUnits="userSpaceOnUse">
<stop stop-color="#F9F9F9"/>
<stop offset="1" stop-color="white"/>
</linearGradient>
</defs>
</svg>
