<svg width="35" height="35" viewBox="0 0 54 54" fill="none" xmlns="http://www.w3.org/2000/svg">
<path fill-rule="evenodd" clip-rule="evenodd" d="M27 53.25C30.4472 53.25 33.8606 52.571 37.0454 51.2518C40.2302 49.9327 43.124 47.9991 45.5616 45.5616C47.9991 43.124 49.9327 40.2302 51.2518 37.0454C52.571 33.8606 53.25 30.4472 53.25 27C53.25 23.5528 52.571 20.1394 51.2518 16.9546C49.9327 13.7698 47.9991 10.876 45.5616 8.43845C43.124 6.00091 40.2302 4.06735 37.0454 2.74816C33.8606 1.42898 30.4472 0.75 27 0.75C20.0381 0.75 13.3613 3.51562 8.43845 8.43845C3.51562 13.3613 0.75 20.0381 0.75 27C0.75 33.9619 3.51562 40.6387 8.43845 45.5616C13.3613 50.4844 20.0381 53.25 27 53.25ZM26.3233 37.6167L40.9067 20.1167L36.4267 16.3833L23.885 31.4304L17.3954 24.9379L13.2713 29.0621L22.0213 37.8121L24.2788 40.0696L26.3233 37.6167Z" fill="#6BA57D"/>
</svg>
