<svg width="57" height="57" viewBox="0 0 57 57" fill="none" xmlns="http://www.w3.org/2000/svg">
<g clip-path="url(#clip0_235_298)">
<path d="M0 2.67188C0 1.19121 1.05885 0 2.375 0H6.8776C9.05469 0 10.9844 1.425 11.8849 3.5625H52.5568C55.1594 3.5625 57.0594 6.3457 56.3766 9.17344L52.3193 26.1287C51.4781 29.6244 48.6578 32.0625 45.4417 32.0625H16.8922L17.4266 35.2354C17.6443 36.4934 18.624 37.4062 19.762 37.4062H48.2917C49.6078 37.4062 50.6667 38.5975 50.6667 40.0781C50.6667 41.5588 49.6078 42.75 48.2917 42.75H19.762C16.338 42.75 13.399 40.0113 12.7656 36.2373L7.65938 6.06738C7.5901 5.64434 7.26354 5.34375 6.8776 5.34375H2.375C1.05885 5.34375 0 4.15254 0 2.67188ZM12.6667 51.6562C12.6667 50.9545 12.7895 50.2596 13.0282 49.6113C13.2669 48.963 13.6168 48.3739 14.0579 47.8776C14.499 47.3814 15.0226 46.9878 15.5989 46.7193C16.1752 46.4507 16.7929 46.3125 17.4167 46.3125C18.0404 46.3125 18.6581 46.4507 19.2344 46.7193C19.8107 46.9878 20.3343 47.3814 20.7754 47.8776C21.2165 48.3739 21.5664 48.963 21.8051 49.6113C22.0438 50.2596 22.1667 50.9545 22.1667 51.6562C22.1667 52.358 22.0438 53.0529 21.8051 53.7012C21.5664 54.3495 21.2165 54.9386 20.7754 55.4349C20.3343 55.9311 19.8107 56.3247 19.2344 56.5932C18.6581 56.8618 18.0404 57 17.4167 57C16.7929 57 16.1752 56.8618 15.5989 56.5932C15.0226 56.3247 14.499 55.9311 14.0579 55.4349C13.6168 54.9386 13.2669 54.3495 13.0282 53.7012C12.7895 53.0529 12.6667 52.358 12.6667 51.6562ZM45.9167 46.3125C47.1764 46.3125 48.3846 46.8755 49.2754 47.8776C50.1662 48.8798 50.6667 50.239 50.6667 51.6562C50.6667 53.0735 50.1662 54.4327 49.2754 55.4349C48.3846 56.437 47.1764 57 45.9167 57C44.6569 57 43.4487 56.437 42.5579 55.4349C41.6671 54.4327 41.1667 53.0735 41.1667 51.6562C41.1667 50.239 41.6671 48.8798 42.5579 47.8776C43.4487 46.8755 44.6569 46.3125 45.9167 46.3125Z" fill="#8F9753"/>
</g>
<defs>
<clipPath id="clip0_235_298">
<rect width="57" height="57" fill="white"/>
</clipPath>
</defs>
</svg>
