<svg width="52" height="48" viewBox="0 0 52 48" fill="none" xmlns="http://www.w3.org/2000/svg">
<g clip-path="url(#clip0_531_1050)">
<path d="M25.8196 0C18.8128 0 17.9317 0.0298368 15.1787 0.143217C12.4257 0.262564 10.5505 0.662377 8.90775 1.25315C7.18379 1.85085 5.62267 2.79093 4.33446 4.00708C3.01895 5.19799 2.00207 6.64121 1.35553 8.23496C0.716493 9.75067 0.280788 11.4872 0.154917 14.0233C0.0322745 16.5743 0 17.3859 0 23.8724C0 30.353 0.0322745 31.1645 0.154917 33.7096C0.284015 36.2517 0.716493 37.9852 1.35553 39.5039C2.01715 41.0733 2.89825 42.4041 4.33446 43.7318C5.76745 45.0595 7.20689 45.8771 8.90452 46.4857C10.5505 47.0765 12.4224 47.4793 15.1722 47.5957C17.9285 47.709 18.8063 47.7389 25.8196 47.7389C32.8328 47.7389 33.7074 47.709 36.4637 47.5957C39.2102 47.4763 41.0918 47.0765 42.7346 46.4857C44.4574 45.8876 46.0174 44.9476 47.3047 43.7318C48.7409 42.4041 49.622 41.0733 50.2836 39.5039C50.9194 37.9852 51.3551 36.2517 51.4842 33.7096C51.6069 31.1645 51.6391 30.353 51.6391 23.8694C51.6391 17.3859 51.6069 16.5743 51.4842 14.0263C51.3551 11.4872 50.9194 9.75067 50.2836 8.23496C49.6371 6.64121 48.6202 5.19799 47.3047 4.00708C46.0165 2.79093 44.4553 1.85085 42.7314 1.25315C41.0854 0.662377 39.207 0.25958 36.4605 0.143217C33.7042 0.0298368 32.8296 0 25.8131 0H25.8196ZM23.5055 4.30247H25.8228C32.7166 4.30247 33.5332 4.32335 36.2539 4.43972C38.7713 4.54415 40.1397 4.93501 41.0499 5.26023C42.2537 5.69286 43.1155 6.21202 44.0191 7.04745C44.9228 7.88288 45.4812 8.67654 45.9492 9.79244C46.3042 10.6309 46.7237 11.8959 46.8367 14.2232C46.9626 16.7384 46.9884 17.4933 46.9884 23.8635C46.9884 30.2336 46.9626 30.9915 46.8367 33.5067C46.7237 35.834 46.3009 37.0961 45.9492 37.9375C45.5323 38.9725 44.872 39.9091 44.0159 40.6795C43.1122 41.5149 42.2537 42.0311 41.0467 42.4637C40.143 42.7919 38.7745 43.1798 36.2539 43.2872C33.5332 43.4006 32.7166 43.4275 25.8228 43.4275C18.929 43.4275 18.1092 43.4006 15.3885 43.2872C12.8711 43.1798 11.5058 42.7919 10.5957 42.4637C9.47524 42.0796 8.46107 41.4702 7.62645 40.6795C6.76884 39.9085 6.10739 38.9709 5.68999 37.9345C5.3382 37.0961 4.9154 35.831 4.80244 33.5037C4.6798 30.9885 4.65398 30.2336 4.65398 23.8575C4.65398 17.4814 4.6798 16.7325 4.80244 14.2172C4.91863 11.89 5.3382 10.6249 5.69321 9.78349C6.16119 8.67058 6.72277 7.87393 7.62645 7.0385C8.53014 6.20307 9.38864 5.68689 10.5957 5.25426C11.5058 4.92606 12.8711 4.53818 15.3885 4.43077C17.7703 4.32932 18.6934 4.29948 23.5055 4.2965V4.30247ZM39.604 8.26479C39.1971 8.26479 38.7942 8.33888 38.4183 8.48283C38.0424 8.62677 37.7008 8.83776 37.4131 9.10374C37.1254 9.36972 36.8972 9.68548 36.7415 10.033C36.5858 10.3805 36.5056 10.753 36.5056 11.1291C36.5056 11.5053 36.5858 11.8777 36.7415 12.2253C36.8972 12.5728 37.1254 12.8885 37.4131 13.1545C37.7008 13.4205 38.0424 13.6315 38.4183 13.7754C38.7942 13.9194 39.1971 13.9935 39.604 13.9935C40.4257 13.9935 41.2138 13.6917 41.7949 13.1545C42.3759 12.6173 42.7023 11.8888 42.7023 11.1291C42.7023 10.3695 42.3759 9.6409 41.7949 9.10374C41.2138 8.56657 40.4257 8.26479 39.604 8.26479ZM25.8228 11.6125C24.0641 11.5871 22.3174 11.8854 20.6846 12.4901C19.0518 13.0948 17.5654 13.9937 16.312 15.1345C15.0586 16.2753 14.0632 17.6352 13.3837 19.1351C12.7043 20.635 12.3543 22.2448 12.3543 23.8709C12.3543 25.497 12.7043 27.1069 13.3837 28.6068C14.0632 30.1066 15.0586 31.4666 16.312 32.6074C17.5654 33.7482 19.0518 34.6471 20.6846 35.2518C22.3174 35.8564 24.0641 36.1548 25.8228 36.1294C29.3037 36.0792 32.6237 34.7656 35.0661 32.4721C37.5085 30.1787 38.8775 27.0893 38.8775 23.8709C38.8775 20.6525 37.5085 17.5632 35.0661 15.2697C32.6237 12.9763 29.3037 11.6627 25.8228 11.6125ZM25.8228 15.912C26.9532 15.912 28.0725 16.1178 29.1168 16.5177C30.1611 16.9176 31.11 17.5037 31.9093 18.2427C32.7086 18.9816 33.3426 19.8588 33.7752 20.8242C34.2078 21.7897 34.4304 22.8245 34.4304 23.8694C34.4304 24.9144 34.2078 25.9492 33.7752 26.9146C33.3426 27.8801 32.7086 28.7573 31.9093 29.4962C31.11 30.2351 30.1611 30.8213 29.1168 31.2212C28.0725 31.6211 26.9532 31.8269 25.8228 31.8269C23.5399 31.8269 21.3505 30.9885 19.7363 29.4962C18.1221 28.0039 17.2152 25.9799 17.2152 23.8694C17.2152 21.759 18.1221 19.735 19.7363 18.2427C21.3505 16.7503 23.5399 15.912 25.8228 15.912Z" fill="#2789B9"/>
</g>
<defs>
<clipPath id="clip0_531_1050">
<rect width="51.6391" height="47.7389" fill="white"/>
</clipPath>
</defs>
</svg>
