<svg width="80" height="71" viewBox="0 0 80 71" fill="none" xmlns="http://www.w3.org/2000/svg">
<path d="M39.7291 52.9603L24.6071 33.9828C22.1319 31.3857 20.5379 28.2171 20.0107 24.8461C19.4836 21.475 20.045 18.0402 21.6296 14.9417C23.2142 11.8433 25.7567 9.20863 28.9611 7.34466C32.1654 5.4807 35.8998 4.46412 39.7291 4.41333C45.0373 4.45995 50.1084 6.37417 53.8317 9.73676C57.555 13.0993 59.627 17.6362 59.5939 22.3536C59.5959 26.469 58.0194 30.462 55.1243 33.6739L39.7291 52.9603ZM39.7291 8.82669C35.7359 8.86744 31.9242 10.3148 29.1308 12.851C26.3374 15.3872 24.7908 18.8049 24.8306 22.3536C24.8493 25.5923 26.1604 28.72 28.5304 31.1804L39.7291 45.281L51.2259 30.8935C53.4112 28.4693 54.6101 25.4598 54.6277 22.3536C54.6674 18.8049 53.1208 15.3872 50.3274 12.851C47.5341 10.3148 43.7223 8.86744 39.7291 8.82669Z" fill="#2789B9"/>
<path d="M39.7299 24.2735C42.4726 24.2735 44.6961 22.2976 44.6961 19.8601C44.6961 17.4227 42.4726 15.4468 39.7299 15.4468C36.9871 15.4468 34.7637 17.4227 34.7637 19.8601C34.7637 22.2976 36.9871 24.2735 39.7299 24.2735Z" fill="#2789B9"/>
<path d="M69.5273 26.4801H64.5611V30.8935H69.5273V61.787H9.93299V30.8935H14.8992V26.4801H9.93299C8.61587 26.4801 7.3527 26.9451 6.42136 27.7727C5.49002 28.6004 4.9668 29.723 4.9668 30.8935V61.787C4.9668 62.9575 5.49002 64.08 6.42136 64.9077C7.3527 65.7354 8.61587 66.2003 9.93299 66.2003H69.5273C70.8444 66.2003 72.1076 65.7354 73.0389 64.9077C73.9703 64.08 74.4935 62.9575 74.4935 61.787V30.8935C74.4935 29.723 73.9703 28.6004 73.0389 27.7727C72.1076 26.9451 70.8444 26.4801 69.5273 26.4801Z" fill="#2789B9"/>
</svg>
