<svg width="58" height="59" viewBox="0 0 58 59" fill="none" xmlns="http://www.w3.org/2000/svg">
<path fill-rule="evenodd" clip-rule="evenodd" d="M46.9811 11.1284C44.6352 8.75383 41.8481 6.87215 38.7804 5.59168C35.7127 4.31122 32.425 3.65727 29.1065 3.66748C15.1797 3.66748 3.8425 15.0801 3.83684 29.1103C3.83062 33.5779 4.99463 37.9673 7.21035 41.8318L3.625 55.0116L17.0205 51.4737C20.7284 53.5061 24.8792 54.5697 29.0963 54.5681H29.1065C43.0322 54.5681 54.3682 43.1543 54.375 29.1252C54.3834 25.7793 53.7341 22.4652 52.4647 19.3755C51.1954 16.2859 49.3314 13.4825 46.9811 11.1284ZM29.1065 50.2738H29.0974C25.338 50.2749 21.647 49.257 18.4082 47.3261L17.6413 46.8676L9.69234 48.9672L11.8141 41.1636L11.3145 40.3614C9.21247 36.9944 8.09876 33.0927 8.10301 29.1103C8.10301 17.4513 17.5291 7.96526 29.1144 7.96526C34.672 7.95522 40.0059 10.1789 43.943 14.1473C47.8802 18.1157 50.098 23.5038 50.1088 29.1264C50.1043 40.7866 40.6827 50.2738 29.1065 50.2738ZM40.6261 34.4362C39.9951 34.1175 36.8878 32.5795 36.3123 32.3675C35.7368 32.1555 35.312 32.0489 34.8918 32.6861C34.4715 33.3233 33.2605 34.749 32.8923 35.1788C32.5242 35.6086 32.156 35.6556 31.525 35.337C30.8941 35.0184 28.8584 34.3479 26.4466 32.1818C24.5696 30.4959 23.3031 28.4147 22.9349 27.7786C22.5668 27.1425 22.8953 26.7976 23.2113 26.4812C23.4957 26.1959 23.8423 25.7386 24.1584 25.3673C24.4744 24.9959 24.5798 24.73 24.7893 24.306C24.9989 23.8819 24.8947 23.5106 24.7372 23.1932C24.5798 22.8757 23.3167 19.7458 22.7911 18.4725C22.2779 17.2324 21.7579 17.4009 21.3705 17.3814C21.0023 17.3631 20.5775 17.3585 20.1595 17.3585C19.84 17.3669 19.5256 17.4419 19.2359 17.5787C18.9463 17.7156 18.6877 17.9114 18.4762 18.1539C17.8973 18.7911 16.2661 20.3314 16.2661 23.4579C16.2661 26.5844 18.5317 29.61 18.8443 30.0341C19.157 30.4581 23.2963 36.8796 29.6298 39.6336C30.8059 40.1432 32.0076 40.59 33.2299 40.9722C34.7422 41.4559 36.1186 41.3882 37.2061 41.2244C38.4193 41.0421 40.9444 39.6863 41.4689 38.201C41.9934 36.7157 41.9945 35.4436 41.837 35.1788C41.6796 34.9141 41.2582 34.7536 40.6261 34.4362Z" fill="#2789B9"/>
</svg>
