<svg width="277" height="188" viewBox="0 0 277 188" fill="none" xmlns="http://www.w3.org/2000/svg">
<path opacity="0.1" d="M9.50871 179.27V183.046L1.95703 182.214V179.27H9.50871Z" fill="white"/>
<path d="M15.6133 127.77L59.1348 120.646V162.095L17.7837 159.917L15.6133 127.77Z" fill="#AAB479"/>
<path opacity="0.05" d="M15.6133 127.77L59.1348 120.646V162.095L17.7837 159.917L15.6133 127.77Z" fill="black"/>
<path d="M59.1328 120.646L110.944 124.574L108.077 160.645L59.1328 162.095V120.646Z" fill="#AAB479"/>
<path opacity="0.1" d="M59.1328 120.646L110.944 124.574L108.077 160.645L59.1328 162.095V120.646Z" fill="black"/>
<path d="M75.0155 108.21L59.1328 120.861L110.792 124.79L119.234 111.844L75.0155 108.21Z" fill="#AAB479"/>
<path d="M0.0703125 114.056L39.109 109.248L59.1352 120.761L15.7714 127.9L0.0703125 114.056Z" fill="#AAB479"/>
<path d="M68.4608 131.525V188L48.1561 185.904L39.3238 184.997L36.633 184.714L27.8063 183.801L15.6133 182.544V127.899L58.953 130.868L68.4608 131.525Z" fill="#AAB479"/>
<path d="M110.946 124.791V179.8L94.6694 182.941L86.7534 184.469L68.4609 188V131.593L110.946 124.791Z" fill="#AAB479"/>
<path opacity="0.05" d="M110.946 124.791V179.8L94.6694 182.941L86.7534 184.469L68.4609 188V131.593L110.946 124.791Z" fill="black"/>
<path d="M0.0703125 139.619L15.7301 127.899L68.4613 131.474L60.6988 144.479L0.0703125 139.619Z" fill="#AAB479"/>
<path opacity="0.1" d="M0.0703125 139.619L15.7301 127.899L68.4613 131.474L60.6988 144.479L0.0703125 139.619Z" fill="white"/>
<path d="M110.752 124.791L68.4609 131.747L82.2254 144.479L127.526 136.631L110.752 124.791Z" fill="#AAB479"/>
<path opacity="0.1" d="M110.752 124.791L68.4609 131.747L82.2254 144.479L127.526 136.631L110.752 124.791Z" fill="white"/>
<path opacity="0.1" d="M94.3669 182.346L87.1133 183.855V176.386L93.9077 174.529L94.3669 182.346Z" fill="white"/>
<path opacity="0.1" d="M103.691 181.309L96.4375 182.819V171.205L103.232 169.348L103.691 181.309Z" fill="white"/>
<path fill-rule="evenodd" clip-rule="evenodd" d="M32.9266 156.624C32.0317 159.188 29.2586 161.056 25.9764 161.056C24.5349 161.056 23.1916 160.696 22.0625 160.075C22.7569 162.439 24.9426 164.165 27.5315 164.165C30.6791 164.165 33.2307 161.613 33.2307 158.466C33.2307 157.821 33.1238 157.202 32.9266 156.624Z" fill="#F1F2F3"/>
<mask id="mask0_946_558" style="mask-type:alpha" maskUnits="userSpaceOnUse" x="22" y="156" width="12" height="9">
<path fill-rule="evenodd" clip-rule="evenodd" d="M32.9266 156.624C32.0317 159.188 29.2586 161.056 25.9764 161.056C24.5349 161.056 23.1916 160.696 22.0625 160.075C22.7569 162.439 24.9426 164.165 27.5315 164.165C30.6791 164.165 33.2307 161.613 33.2307 158.466C33.2307 157.821 33.1238 157.202 32.9266 156.624Z" fill="white"/>
</mask>
<g mask="url(#mask0_946_558)">
<ellipse cx="29.0842" cy="163.131" rx="2.07245" ry="2.07245" fill="#1D1F22"/>
<path d="M22.5209 163.006L22.4353 163.006L25.4435 164.287C26.0633 164.551 26.7256 164.687 27.391 164.687L28.5078 164.687C30.0244 164.687 31.3841 163.808 32.0097 162.422L32.0097 162.225C32.0097 162.13 31.9402 162.049 31.848 162.035C31.2808 161.95 30.7055 162 30.1679 162.181L29.67 162.348L28.1168 162.736C27.4078 162.914 26.6637 162.921 25.9421 162.759L25.3354 162.623C24.7557 162.492 24.1553 162.547 23.6175 162.78C23.2725 162.929 22.8996 163.006 22.5209 163.006Z" fill="#4D9AF5"/>
</g>
<path fill-rule="evenodd" clip-rule="evenodd" d="M47.3486 157.565C47.9876 160.239 50.6184 162.38 53.9285 162.657C55.3173 162.773 56.6428 162.546 57.793 162.056C57.0243 164.295 54.9007 165.904 52.4013 165.904C49.2537 165.904 46.7021 163.352 46.7021 160.204C46.7021 159.252 46.9356 158.354 47.3486 157.565Z" fill="#F1F2F3"/>
<mask id="mask1_946_558" style="mask-type:alpha" maskUnits="userSpaceOnUse" x="46" y="156" width="12" height="10">
<path fill-rule="evenodd" clip-rule="evenodd" d="M47.7455 156.912C47.9201 160.19 50.6329 162.793 53.954 162.793C55.4954 162.793 56.9058 162.233 57.9922 161.304C57.4794 163.925 55.1702 165.902 52.3991 165.902C49.2515 165.902 46.6999 163.351 46.6999 160.203C46.6999 158.977 47.0869 157.842 47.7455 156.912Z" fill="white"/>
</mask>
<g mask="url(#mask1_946_558)">
<ellipse cx="2.07245" cy="2.07246" rx="2.07245" ry="2.07246" transform="matrix(-1 0 0 1 52.918 162.793)" fill="#1D1F22"/>
<path d="M55.1948 164.866L55.9815 164.898C57.0832 164.943 57.9531 165.849 57.9531 166.952H52.8537C51.9642 166.952 51.0908 166.715 50.3236 166.265L46.1137 163.795C46.1137 162.857 47.1269 162.269 47.9412 162.734L50.1031 163.97C50.506 164.2 50.962 164.321 51.426 164.321H52.5683C53.0843 164.321 53.596 164.415 54.0779 164.6L54.2843 164.679C54.5756 164.79 54.8831 164.854 55.1948 164.866Z" fill="#4D9AF5"/>
</g>
<path fill-rule="evenodd" clip-rule="evenodd" d="M46.6446 173.915C45.0436 170.974 42.0978 168.928 38.6344 168.746C35.1661 168.563 32.0176 170.293 30.1173 173.056C31.5255 169.748 34.8887 167.511 38.6874 167.711C42.4816 167.911 45.5881 170.483 46.6446 173.915Z" fill="#F1F2F3"/>
<path fill-rule="evenodd" clip-rule="evenodd" d="M47.887 174.208C47.5779 173.91 47.1381 173.775 46.7092 173.89C46.29 174.003 45.981 174.327 45.8562 174.726C45.9037 174.28 46.2192 173.888 46.6787 173.765C47.1471 173.639 47.6259 173.831 47.887 174.208Z" fill="#F1F2F3"/>
<path fill-rule="evenodd" clip-rule="evenodd" d="M29.0917 173.085C29.464 172.887 29.9155 172.874 30.2941 173.093C30.6783 173.315 30.894 173.72 30.9025 174.149C30.985 173.697 30.782 173.223 30.3616 172.98C29.9463 172.74 29.4412 172.797 29.0917 173.085Z" fill="#F1F2F3"/>
<path d="M151.293 51.3315L151.295 51.3336C151.299 51.3405 151.299 51.3454 151.302 51.3524C151.33 51.4277 151.379 51.4878 151.438 51.5339C151.484 51.5696 151.541 51.5962 151.602 51.6124C152.816 51.9003 154.094 51.909 155.366 51.6711C155.376 51.6697 155.381 51.6739 155.388 51.6704C155.398 51.6691 155.407 51.6628 155.417 51.6615C157.908 51.1855 160.37 49.7626 162.256 47.5837C165.167 44.2257 164.585 41.6402 163.354 38.4202L165.529 35.9085C165.693 35.7195 165.677 35.4394 165.494 35.2793C165.297 35.1039 165.033 35.1435 164.869 35.3325L162.694 37.8443C159.347 37.0659 156.713 36.8462 153.8 40.207C150.936 43.5039 149.954 47.8666 151.293 51.3313L151.293 51.3315ZM151.606 48.0409L153.851 48.0378L151.908 50.2793C151.708 49.5619 151.609 48.8107 151.606 48.0409L151.606 48.0409ZM152.234 44.513L156.913 44.5075L154.629 47.1436L151.629 47.1486C151.713 46.2725 151.915 45.3849 152.234 44.513L152.234 44.513ZM154.295 40.9894L159.968 40.9806L157.686 43.6139L152.624 43.6211C153.057 42.7035 153.611 41.8135 154.295 40.9894L154.295 40.9894ZM159.04 49.219L158.346 44.1902L160.631 41.554L161.412 47.1948C160.692 47.9917 159.89 48.6664 159.04 49.219L159.04 49.219ZM155.699 50.6984L155.286 47.7177L157.571 45.0816L158.213 49.7314C157.4 50.1699 156.553 50.4969 155.699 50.6985L155.699 50.6984ZM152.568 50.8555L154.513 48.6112L154.822 50.8462C154.061 50.9505 153.307 50.9524 152.568 50.8555L152.568 50.8555ZM162.178 46.2653L161.404 40.6608L162.683 39.1836C163.627 41.743 163.983 43.7782 162.178 46.2653L162.178 46.2653ZM162.023 38.6125L160.744 40.0897L155.105 40.0986C157.318 37.9555 159.374 38.0285 162.023 38.6126L162.023 38.6125Z" fill="#8F9753"/>
<path d="M154.28 74.6358L154.278 74.6383C154.271 74.6412 154.266 74.6414 154.259 74.6443C154.182 74.6679 154.119 74.7129 154.07 74.7695C154.032 74.8133 154.002 74.8689 153.982 74.9288C153.626 76.1237 153.544 77.4 153.709 78.6831C153.71 78.6929 153.705 78.6981 153.709 78.7053C153.709 78.715 153.715 78.7246 153.716 78.7344C154.049 81.2489 155.329 83.7877 157.397 85.7942C160.584 88.8918 163.199 88.4583 166.483 87.4128L168.867 89.727C169.047 89.9019 169.327 89.902 169.497 89.7286C169.684 89.542 169.659 89.2756 169.48 89.1008L167.096 86.7865C168.064 83.4895 168.433 80.8721 165.244 77.7723C162.115 74.7258 157.816 73.4961 154.28 74.636L154.28 74.6358ZM157.548 75.1359L157.423 77.3771L155.296 75.3097C156.023 75.1514 156.779 75.0948 157.548 75.1358L157.548 75.1359ZM161.034 75.9634L160.773 80.6356L158.271 78.2046L158.437 75.2098C159.307 75.3437 160.182 75.5953 161.034 75.9634L161.034 75.9634ZM164.435 78.2222L164.12 83.8868L161.621 81.4582L161.902 76.4044C162.794 76.8883 163.651 77.492 164.435 78.2222L164.435 78.2222ZM155.948 82.491L161.008 82.0847L163.51 84.5156L157.834 84.9737C157.079 84.21 156.451 83.371 155.948 82.4911L155.948 82.491ZM154.661 79.0709L157.661 78.8285L160.162 81.2595L155.484 81.6361C155.092 80.7994 154.814 79.9348 154.661 79.071L154.661 79.0709ZM154.683 75.9363L156.813 78.0059L154.564 78.1871C154.503 77.4216 154.544 76.668 154.683 75.9363L154.683 75.9363ZM158.718 85.7916L164.358 85.338L165.76 86.699C163.151 87.4956 161.098 87.7353 158.718 85.7916L158.718 85.7916ZM166.367 86.0731L164.965 84.712L165.278 79.0819C167.291 81.413 167.101 83.4612 166.367 86.073L166.367 86.0731Z" fill="#8F9753"/>
<path d="M196.942 56.031L196.941 56.0344C196.937 56.0408 196.933 56.0437 196.929 56.0501C196.878 56.1126 196.851 56.185 196.842 56.2595C196.835 56.3172 196.841 56.38 196.858 56.4407C197.23 57.6308 197.876 58.7347 198.73 59.7066C198.736 59.7142 198.735 59.721 198.742 59.7253C198.748 59.7329 198.758 59.7376 198.764 59.7453C200.446 61.6443 202.926 63.0342 205.763 63.5425C210.136 64.3304 212.062 62.5099 214.202 59.8072L217.472 60.3942C217.718 60.439 217.951 60.2823 217.995 60.0433C218.046 59.7845 217.877 59.5773 217.63 59.5325L214.36 58.9455C213.32 55.6706 212.164 53.2935 207.786 52.5053C203.49 51.7271 199.237 53.1102 196.942 56.0311L196.942 56.031ZM199.931 54.6198L201.08 56.5482L198.16 56.0225C198.675 55.4846 199.27 55.0154 199.931 54.6197L199.931 54.6198ZM203.284 53.3577L205.679 57.3782L202.246 56.7603L200.71 54.1841C201.506 53.809 202.372 53.5288 203.284 53.3578L203.284 53.3577ZM207.367 53.3306L210.272 58.2039L206.842 57.5864L204.251 53.2383C205.261 53.1414 206.309 53.1631 207.367 53.3306L207.367 53.3306ZM202.714 61.6132L206.684 58.4485L210.117 59.0664L205.666 62.6182C204.613 62.4066 203.624 62.0617 202.715 61.6133L202.714 61.6132ZM199.736 59.496L202.088 57.6189L205.521 58.2368L201.852 61.1638C201.059 60.6888 200.346 60.1272 199.736 59.4961L199.736 59.496ZM198.002 56.8846L200.925 57.4107L199.161 58.8177C198.683 58.2169 198.296 57.5689 198.002 56.8846L198.002 56.8846ZM206.856 62.8023L211.279 59.2746L213.203 59.6198C211.484 61.7384 209.916 63.084 206.856 62.8023L206.856 62.8023ZM213.357 58.7611L211.434 58.4158L208.546 53.5724C211.519 54.3803 212.506 56.1849 213.357 58.7611L213.357 58.7611Z" fill="#8F9753"/>
<path opacity="0.3" d="M111.158 67.4358C111.151 67.4392 111.141 67.4419 111.135 67.4462C111.133 67.4481 111.131 67.4472 111.129 67.4491C111.127 67.4511 111.126 67.4527 111.125 67.453C111.119 67.4585 111.114 67.464 111.107 67.4699C111.101 67.477 111.093 67.4832 111.088 67.4912C111.085 67.4961 111.083 67.4993 111.08 67.5028C111.079 67.5044 111.077 67.5051 111.077 67.5064C110.638 68.3172 110.388 69.2211 110.313 70.1605C110.311 70.1663 110.309 70.1711 110.309 70.1765C110.308 70.1835 110.31 70.1911 110.311 70.199C110.172 72.045 110.721 74.0249 111.92 75.724C113.581 78.0737 115.913 79.0654 118.854 78.6782L120.321 80.7575C120.374 80.8326 120.481 80.8514 120.557 80.7985C120.617 80.7566 120.642 80.6837 120.624 80.618C120.619 80.5991 120.611 80.5824 120.599 80.5652L119.131 78.4876C120.05 76.7451 120.295 75.044 119.856 73.4054C119.638 72.5944 119.255 71.7993 118.706 71.0217C116.886 68.4453 113.941 67.033 111.203 67.4225C111.2 67.4232 111.199 67.4248 111.196 67.4242L111.184 67.4277C111.175 67.4272 111.167 67.4321 111.158 67.4358L111.158 67.4358ZM113.748 67.8996L113.169 70.0436L111.531 67.7234C112.267 67.6534 113.016 67.7139 113.748 67.8997L113.748 67.8996ZM111.253 67.9169L112.892 70.2372L110.661 70.0415C110.735 69.2944 110.934 68.5776 111.253 67.9169L111.253 67.9169ZM110.637 70.3757L113.144 70.596L114.871 73.0402L110.876 72.6903C110.677 71.9164 110.597 71.135 110.636 70.3757L110.637 70.3757ZM118.331 71.1967L117.129 75.6511L115.402 73.2068L116.479 69.2149C117.183 69.7371 117.824 70.3818 118.365 71.1318C118.351 71.1492 118.337 71.1704 118.331 71.1966L118.331 71.1967ZM112.216 75.436C112.191 75.4333 112.166 75.4386 112.143 75.4476C111.617 74.6853 111.225 73.8683 110.972 73.0357L115.124 73.4003L116.851 75.8445L112.216 75.436ZM112.39 75.7875L117.103 76.2008L118.633 78.3661C115.989 78.6699 113.94 77.8228 112.39 75.7873L112.39 75.7875ZM118.913 78.1749L117.384 76.008L118.606 71.4777C120.005 73.6173 120.107 75.8144 118.913 78.175L118.913 78.1749ZM116.186 69.0078C116.185 69.0082 116.185 69.0082 116.185 69.0094L115.149 72.8478L113.422 70.4023L114.073 67.9924C114.807 68.2155 115.521 68.5578 116.186 69.0077L116.186 69.0078Z" fill="#8F9753"/>
<path opacity="0.3" d="M144.395 125.513C144.392 125.521 144.387 125.53 144.387 125.537C144.387 125.54 144.385 125.541 144.385 125.544C144.385 125.547 144.385 125.549 144.385 125.55C144.385 125.558 144.386 125.565 144.385 125.574C144.387 125.584 144.386 125.594 144.389 125.602C144.39 125.608 144.391 125.611 144.392 125.616C144.392 125.618 144.391 125.62 144.392 125.621C144.7 126.49 145.202 127.282 145.849 127.968C145.853 127.972 145.854 127.978 145.858 127.981C145.863 127.986 145.87 127.99 145.876 127.995C147.153 129.335 148.99 130.256 151.054 130.505C153.911 130.849 156.211 129.783 157.895 127.342L160.422 127.647C160.513 127.658 160.598 127.592 160.61 127.5C160.62 127.427 160.582 127.36 160.521 127.329C160.504 127.32 160.486 127.315 160.465 127.312L157.94 127.008C157.263 125.158 156.165 123.836 154.655 123.063C153.907 122.681 153.061 122.432 152.116 122.318C148.984 121.94 145.961 123.179 144.414 125.471C144.413 125.474 144.414 125.475 144.411 125.477L144.405 125.489C144.399 125.495 144.398 125.504 144.395 125.513L144.395 125.513ZM146.475 123.903L147.678 125.77L144.857 125.43C145.299 124.837 145.846 124.321 146.475 123.903L146.475 123.903ZM144.815 125.766L147.635 126.105L145.994 127.629C145.49 127.073 145.092 126.445 144.815 125.766L144.815 125.766ZM146.226 127.871L148.071 126.159L151.042 126.516L148.104 129.245C147.396 128.874 146.763 128.41 146.226 127.872L146.226 127.871ZM151.994 122.714L154.493 126.592L151.522 126.234L149.282 122.758C150.142 122.586 151.05 122.543 151.969 122.644C151.972 122.667 151.979 122.691 151.994 122.714L151.994 122.714ZM151.039 130.092C151.02 130.109 151.008 130.131 150.999 130.155C150.081 130.034 149.212 129.776 148.424 129.406L151.479 126.57L154.45 126.927L151.039 130.092ZM151.417 130.199L154.884 126.979L157.516 127.296C155.968 129.462 153.966 130.413 151.417 130.199L151.417 130.199ZM157.561 126.961L154.928 126.642L152.387 122.698C154.912 123.095 156.611 124.492 157.562 126.961L157.561 126.961ZM148.932 122.837C148.931 122.838 148.931 122.838 148.933 122.839L151.086 126.181L148.113 125.823L146.762 123.724C147.419 123.329 148.152 123.029 148.932 122.837L148.932 122.837Z" fill="#8F9753"/>
<path opacity="0.3" d="M262.726 142.537C262.731 142.543 262.736 142.552 262.742 142.556C262.744 142.558 262.744 142.56 262.746 142.562C262.749 142.563 262.751 142.564 262.751 142.565C262.758 142.568 262.765 142.572 262.772 142.577C262.781 142.581 262.789 142.587 262.798 142.589C262.803 142.591 262.807 142.592 262.811 142.594C262.813 142.594 262.815 142.597 262.816 142.596C263.715 142.799 264.653 142.795 265.578 142.613C265.583 142.613 265.589 142.614 265.594 142.613C265.601 142.611 265.608 142.607 265.615 142.605C267.43 142.238 269.187 141.174 270.498 139.559C272.31 137.324 272.633 134.81 271.464 132.084L273.068 130.109C273.126 130.037 273.115 129.93 273.044 129.871C272.987 129.824 272.91 129.82 272.852 129.855C272.835 129.865 272.821 129.878 272.808 129.893L271.206 131.869C269.279 131.456 267.575 131.682 266.117 132.548C265.395 132.977 264.734 133.561 264.134 134.3C262.146 136.75 261.584 139.967 262.701 142.498C262.702 142.5 262.704 142.5 262.704 142.503L262.711 142.515C262.713 142.523 262.72 142.53 262.726 142.537L262.726 142.537ZM262.471 139.919L264.692 139.895L262.902 142.101C262.635 141.411 262.49 140.673 262.471 139.918L262.471 139.919ZM263.163 142.316L264.953 140.11L265.369 142.31C264.629 142.441 263.885 142.443 263.163 142.316L263.163 142.316ZM265.697 142.243L265.23 139.769L267.115 137.445L267.86 141.385C267.169 141.787 266.439 142.075 265.697 142.243L265.697 142.243ZM264.404 134.614L269.017 134.565L267.132 136.889L262.997 136.933C263.309 136.114 263.757 135.322 264.332 134.598C264.353 134.607 264.377 134.615 264.404 134.614L264.404 134.614ZM270.14 139.352C270.145 139.377 270.157 139.399 270.172 139.42C269.58 140.132 268.9 140.731 268.167 141.2L267.393 137.104L269.279 134.78L270.14 139.352ZM270.432 139.089L269.553 134.44L271.223 132.381C272.232 134.845 271.971 137.046 270.432 139.089L270.432 139.089ZM270.964 132.164L269.292 134.223L264.6 134.273C266.281 132.347 268.368 131.653 270.964 132.164L270.964 132.164ZM262.877 137.271C262.878 137.272 262.878 137.272 262.879 137.272L266.855 137.23L264.968 139.555L262.472 139.58C262.488 138.813 262.624 138.034 262.877 137.271L262.877 137.271Z" fill="#8F9753"/>
<path opacity="0.3" d="M158.186 5.05397C158.181 5.06071 158.174 5.06853 158.171 5.07518C158.171 5.07802 158.169 5.07811 158.168 5.08095C158.167 5.08379 158.167 5.08565 158.166 5.08663C158.165 5.09417 158.163 5.1017 158.161 5.11022C158.159 5.11962 158.156 5.12911 158.156 5.13842C158.156 5.144 158.156 5.14772 158.156 5.15242C158.156 5.15428 158.154 5.15624 158.155 5.15712C158.22 6.0768 158.494 6.97392 158.935 7.80674C158.937 7.81223 158.937 7.81781 158.94 7.82233C158.943 7.8287 158.949 7.834 158.954 7.84029C159.828 9.47186 161.354 10.8479 163.278 11.6376C165.94 12.7286 168.441 12.3129 170.714 10.4076L173.068 11.3742C173.153 11.4091 173.253 11.3677 173.289 11.282C173.317 11.2144 173.299 11.1399 173.248 11.0939C173.234 11.0806 173.218 11.0712 173.199 11.0628L170.845 10.0981C170.685 8.13438 169.978 6.5681 168.728 5.42135C168.109 4.85377 167.359 4.38876 166.479 4.02724C163.56 2.83065 160.317 3.22039 158.216 5.01887C158.214 5.02082 158.214 5.02268 158.211 5.02375L158.202 5.03352C158.195 5.03762 158.191 5.04623 158.185 5.05395L158.186 5.05397ZM160.619 4.05511L161.282 6.17453L158.654 5.09674C159.237 4.64249 159.902 4.29137 160.619 4.05511L160.619 4.05511ZM158.524 5.40904L161.152 6.48683L159.165 7.5193C158.826 6.84913 158.61 6.13749 158.524 5.40902L158.524 5.40904ZM159.324 7.81435L161.558 6.65393L164.327 7.78899L160.769 9.63841C160.185 9.09237 159.698 8.47627 159.323 7.81443L159.324 7.81435ZM166.256 4.37651L167.633 8.7797L164.864 7.64464L163.63 3.69848C164.504 3.76106 165.391 3.96099 166.25 4.30309C166.247 4.32561 166.247 4.35078 166.256 4.37647L166.256 4.37651ZM163.373 11.2356C163.35 11.247 163.332 11.2647 163.317 11.285C162.464 10.9239 161.695 10.445 161.035 9.87855L164.734 7.95694L167.503 9.09201L163.373 11.2356ZM163.708 11.4388L167.907 9.25724L170.36 10.2627C168.292 11.9387 166.109 12.3237 163.708 11.4387L163.708 11.4388ZM170.493 9.95138L168.04 8.94409L166.639 4.46564C168.967 5.52019 170.234 7.31865 170.493 9.95148L170.493 9.95138ZM163.271 3.68111C163.27 3.68208 163.27 3.68208 163.271 3.68297L164.458 7.47748L161.688 6.34153L160.944 3.95861C161.682 3.75294 162.468 3.65869 163.271 3.68102L163.271 3.68111Z" fill="#8F9753"/>
<path opacity="0.3" d="M71.7698 87.5721C71.7729 87.5795 71.7753 87.5898 71.7794 87.5957C71.7813 87.598 71.7803 87.5996 71.7822 87.6018C71.7841 87.6041 71.7857 87.6051 71.786 87.6064C71.7913 87.6119 71.7967 87.6175 71.8023 87.6243C71.8092 87.6308 71.8152 87.639 71.8231 87.6439C71.8278 87.6469 71.831 87.6488 71.8345 87.6521C71.836 87.6531 71.8367 87.6557 71.8379 87.6554C72.6358 88.1175 73.5321 88.394 74.4689 88.496C74.4746 88.4974 74.4794 88.5004 74.4848 88.5004C74.4917 88.5015 74.4994 88.4997 74.5073 88.4992C76.3485 88.6906 78.3435 88.1995 80.0765 87.0498C82.4731 85.4579 83.5317 83.1546 83.2295 80.2041L85.3502 78.7975C85.4269 78.7466 85.4487 78.6406 85.398 78.5627C85.3579 78.5014 85.2858 78.4749 85.2196 78.4906C85.2005 78.4951 85.1836 78.5032 85.166 78.5142L83.0469 79.9217C81.3317 78.9524 79.6384 78.6592 77.9878 79.0508C77.1708 79.2446 76.3651 79.6047 75.5719 80.1309C72.944 81.8757 71.4474 84.7792 71.7577 87.5273C71.7583 87.5299 71.7599 87.5309 71.7592 87.5337L71.7623 87.5466C71.7616 87.555 71.7663 87.5634 71.7697 87.5721L71.7698 87.5721ZM72.3081 84.9971L74.4345 85.6372L72.0679 87.2084C72.0192 86.4705 72.1014 85.7233 72.3081 84.997L72.3081 84.9971ZM72.2533 87.4914L74.6199 85.9202L74.3599 88.1445C73.6154 88.0486 72.9046 87.8288 72.2533 87.4914L72.2533 87.4914ZM74.6933 88.1785L74.9859 85.6781L77.4789 84.0223L77.0139 88.0055C76.2346 88.1822 75.4512 88.24 74.6933 88.1786L74.6933 88.1785ZM75.736 80.5113L80.1538 81.841L77.6608 83.4967L73.7016 82.3048C74.2439 81.6161 74.9068 80.9941 75.6721 80.4747C75.6891 80.4897 75.7099 80.5038 75.7359 80.5113L75.736 80.5113ZM79.7971 86.7454C79.7937 86.7707 79.7983 86.7955 79.8066 86.8194C79.0294 87.3227 78.2014 87.6908 77.3619 87.92L77.8462 83.7798L80.3392 82.1241L79.7971 86.7454ZM80.1535 86.5818L80.7026 81.8824L82.9111 80.4155C83.1385 83.0678 82.2326 85.0908 80.1533 86.5818L80.1535 86.5818ZM82.7281 80.1307L80.518 81.5966L76.0248 80.2439C78.2039 78.908 80.4031 78.8686 82.7282 80.1307L82.7281 80.1307ZM73.4862 82.5918C73.4865 82.5931 73.4865 82.5931 73.4877 82.5928L77.2946 83.739L74.8003 85.395L72.4102 84.6744C72.6543 83.9474 73.0171 83.2441 73.486 82.5918L73.4862 82.5918Z" fill="#8F9753"/>
<path opacity="0.3" d="M127.942 23.2537C127.945 23.2612 127.947 23.2715 127.951 23.2773C127.953 23.2796 127.952 23.2812 127.954 23.2835C127.956 23.2857 127.958 23.2867 127.958 23.288C127.963 23.2936 127.969 23.2991 127.974 23.3059C127.981 23.3125 127.987 23.3206 127.995 23.3255C128 23.3285 128.003 23.3305 128.006 23.3338C128.008 23.3347 128.009 23.3373 128.01 23.337C128.808 23.7991 129.704 24.0756 130.641 24.1777C130.646 24.179 130.651 24.182 130.657 24.1821C130.664 24.1832 130.671 24.1813 130.679 24.1808C132.52 24.3722 134.515 23.8812 136.248 22.7315C138.645 21.1395 139.704 18.8362 139.401 15.8857L141.522 14.4792C141.599 14.4283 141.621 14.3222 141.57 14.2443C141.53 14.183 141.458 14.1565 141.391 14.1722C141.372 14.1767 141.355 14.1848 141.338 14.1958L139.219 15.6034C137.504 14.634 135.81 14.3408 134.16 14.7324C133.343 14.9262 132.537 15.2864 131.744 15.8125C129.116 17.5574 127.619 20.4608 127.93 23.2089C127.93 23.2115 127.932 23.2125 127.931 23.2154L127.934 23.2283C127.933 23.2366 127.938 23.2451 127.942 23.2538L127.942 23.2537ZM128.48 20.6787L130.606 21.3188L128.24 22.89C128.191 22.1521 128.273 21.4049 128.48 20.6787L128.48 20.6787ZM128.425 23.1731L130.792 21.6019L130.532 23.8261C129.787 23.7302 129.076 23.5105 128.425 23.1731L128.425 23.1731ZM130.865 23.8601L131.158 21.3597L133.651 19.704L133.186 23.6871C132.406 23.8638 131.623 23.9216 130.865 23.8602L130.865 23.8601ZM131.908 16.1929L136.326 17.5226L133.833 19.1783L129.873 17.9864C130.416 17.2977 131.079 16.6758 131.844 16.1563C131.861 16.1714 131.882 16.1855 131.908 16.193L131.908 16.1929ZM135.969 22.427C135.966 22.4524 135.97 22.4772 135.978 22.5011C135.201 23.0043 134.373 23.3724 133.534 23.6016L134.018 19.4615L136.511 17.8058L135.969 22.427ZM136.325 22.2634L136.874 17.5641L139.083 16.0972C139.31 18.7494 138.405 20.7725 136.325 22.2634L136.325 22.2634ZM138.9 15.8124L136.69 17.2783L132.197 15.9256C134.376 14.5896 136.575 14.5503 138.9 15.8123L138.9 15.8124ZM129.658 18.2734C129.658 18.2747 129.658 18.2747 129.66 18.2744L133.467 19.4207L130.972 21.0767L128.582 20.356C128.826 19.629 129.189 18.9257 129.658 18.2735L129.658 18.2734Z" fill="#8F9753"/>
<path opacity="0.3" d="M230.811 28.2401C230.811 28.2482 230.81 28.2586 230.811 28.2656C230.812 28.2684 230.811 28.2695 230.812 28.2723C230.812 28.2752 230.814 28.2767 230.813 28.278C230.816 28.2851 230.819 28.2923 230.822 28.3007C230.826 28.3094 230.828 28.3192 230.834 28.3267C230.837 28.3313 230.839 28.3343 230.841 28.3386C230.842 28.3401 230.842 28.3427 230.843 28.3429C231.408 29.0716 232.134 29.6654 232.963 30.1129C232.968 30.1163 232.971 30.1209 232.976 30.123C232.982 30.1266 232.99 30.1278 232.998 30.1303C234.631 31.0013 236.664 31.2981 238.703 30.8861C241.522 30.3144 243.371 28.5797 244.203 25.7328L246.697 25.2289C246.787 25.2106 246.847 25.1207 246.83 25.0294C246.816 24.9575 246.759 24.9057 246.692 24.8954C246.672 24.8924 246.654 24.8935 246.633 24.897L244.14 25.4025C242.916 23.8583 241.458 22.9487 239.782 22.6895C238.952 22.5613 238.07 22.5913 237.137 22.7798C234.045 23.406 231.565 25.5315 230.817 28.1941C230.817 28.1967 230.818 28.1982 230.816 28.2006L230.814 28.2137C230.81 28.2212 230.811 28.2308 230.811 28.2401L230.811 28.2401ZM232.28 26.0577L234.009 27.4518L231.224 28.0155C231.457 27.3136 231.815 26.6525 232.28 26.0576L232.28 26.0577ZM231.29 28.3476L234.074 27.7839L232.995 29.7462C232.341 29.3768 231.766 28.9055 231.29 28.3476L231.29 28.3476ZM233.291 29.9033L234.504 27.6974L237.437 27.103L235.506 30.6174C234.717 30.4875 233.97 30.2458 233.291 29.9034L233.291 29.9033ZM237.146 23.194L240.737 26.0902L237.804 26.6846L234.585 24.0888C235.347 23.6552 236.196 23.3289 237.1 23.136C237.11 23.1564 237.124 23.1773 237.145 23.194L237.146 23.194ZM238.559 30.4988C238.546 30.521 238.541 30.5457 238.539 30.571C237.63 30.7443 236.724 30.7733 235.86 30.6693L237.869 27.0167L240.802 26.4224L238.559 30.4988ZM238.95 30.4815L241.23 26.3354L243.828 25.8087C243.039 28.3512 241.438 29.8838 238.95 30.4815L238.95 30.4815ZM243.766 25.4759L241.166 26.0011L237.514 23.0552C240.036 22.6387 242.088 23.4308 243.766 25.4759L243.766 25.4759ZM234.278 24.2735C234.277 24.2748 234.277 24.2748 234.279 24.275L237.373 26.7711L234.439 27.3653L232.496 25.7972C232.996 25.2158 233.597 24.701 234.277 24.2735L234.278 24.2735Z" fill="#8F9753"/>
<path opacity="0.3" d="M242.506 80.9805C242.5 80.9856 242.491 80.991 242.486 80.9966C242.485 80.9991 242.483 80.9987 242.481 81.0011C242.48 81.0036 242.479 81.0054 242.478 81.0061C242.474 81.0128 242.47 81.0196 242.466 81.027C242.461 81.0355 242.455 81.0436 242.453 81.0526C242.452 81.058 242.451 81.0616 242.449 81.0659C242.448 81.0677 242.446 81.069 242.446 81.0702C242.24 81.9688 242.24 82.9068 242.419 83.8321C242.42 83.8379 242.418 83.8433 242.42 83.8485C242.421 83.8555 242.425 83.8622 242.427 83.8697C242.788 85.6854 243.845 87.4468 245.455 88.7636C247.683 90.5841 250.196 90.9163 252.926 89.7573L254.896 91.3689C254.967 91.4271 255.075 91.4167 255.134 91.3453C255.181 91.2889 255.185 91.2121 255.15 91.1535C255.14 91.1366 255.128 91.1229 255.112 91.1093L253.142 89.4996C253.562 87.5748 253.343 85.8703 252.482 84.4086C252.056 83.6852 251.474 83.0215 250.738 82.4187C248.295 80.4225 245.08 79.8487 242.545 80.9557C242.543 80.9571 242.542 80.9589 242.539 80.9591L242.528 80.9658C242.52 80.9676 242.513 80.9746 242.506 80.9804L242.506 80.9805ZM245.125 80.7354L245.141 82.956L242.941 81.1581C243.632 80.8939 244.37 80.752 245.125 80.7354L245.125 80.7354ZM242.726 81.4187L244.925 83.2167L242.723 83.6242C242.595 82.8845 242.595 82.1406 242.726 81.4187L242.726 81.4187ZM242.789 83.9528L245.264 83.4949L247.582 85.3887L243.638 86.1192C243.24 85.4266 242.954 84.6951 242.789 83.9529L242.789 83.9528ZM250.422 82.6878L250.455 87.3013L248.137 85.4074L248.109 81.2729C248.927 81.5879 249.716 82.0379 250.439 82.6159C250.429 82.6366 250.422 82.6607 250.422 82.6877L250.422 82.6878ZM245.663 88.4069C245.638 88.4111 245.616 88.4228 245.595 88.4378C244.885 87.8437 244.289 87.1611 243.823 86.4265L247.922 85.6681L250.239 87.5619L245.663 88.4069ZM245.925 88.6992L250.577 87.8378L252.63 89.5155C250.163 90.515 247.963 90.2461 245.925 88.699L245.925 88.6992ZM252.848 89.2566L250.796 87.5771L250.763 82.8849C252.682 84.5731 253.369 86.6628 252.848 89.2567L252.848 89.2566ZM247.771 81.1516C247.77 81.1523 247.77 81.1523 247.77 81.1534L247.798 85.1291L245.48 83.2341L245.464 80.7377C246.23 80.7566 247.009 80.8958 247.771 81.1515L247.771 81.1516Z" fill="#8F9753"/>
<path opacity="0.3" d="M201.885 101.943C201.891 101.948 201.898 101.956 201.904 101.96C201.907 101.961 201.907 101.963 201.91 101.964C201.912 101.965 201.914 101.965 201.915 101.966C201.922 101.968 201.93 101.971 201.938 101.974C201.947 101.977 201.956 101.981 201.965 101.982C201.971 101.983 201.975 101.983 201.979 101.984C201.981 101.984 201.983 101.986 201.984 101.985C202.905 102.025 203.827 101.856 204.705 101.512C204.711 101.511 204.716 101.511 204.721 101.509C204.728 101.506 204.734 101.501 204.74 101.497C206.461 100.814 208.002 99.4553 209.005 97.6338C210.393 95.113 210.264 92.5813 208.63 90.1062L209.859 87.8775C209.903 87.7969 209.873 87.6928 209.792 87.6473C209.728 87.6114 209.652 87.6214 209.601 87.6659C209.586 87.6788 209.575 87.6938 209.564 87.7116L208.338 89.9405C206.368 89.8756 204.732 90.3998 203.45 91.5112C202.816 92.0612 202.268 92.7535 201.809 93.5871C200.288 96.3505 200.306 99.6169 201.853 101.909C201.855 101.911 201.857 101.911 201.858 101.914L201.866 101.924C201.87 101.932 201.878 101.937 201.885 101.943L201.885 101.943ZM201.17 99.4115L203.351 98.9942L201.981 101.483C201.596 100.851 201.323 100.151 201.17 99.4115L201.17 99.4115ZM202.276 101.648L203.646 99.1593L204.446 101.251C203.741 101.511 203.01 101.645 202.276 101.648L202.276 101.648ZM204.757 101.127L203.858 98.7752L205.301 96.1532L206.734 99.8989C206.125 100.416 205.457 100.83 204.757 101.127L204.757 101.127ZM202.131 93.8483L206.662 92.9812L205.219 95.6031L201.158 96.38C201.32 95.5185 201.619 94.6603 202.057 93.8455C202.079 93.8509 202.104 93.8538 202.131 93.8484L202.131 93.8483ZM208.617 97.4933C208.626 97.5173 208.641 97.5372 208.66 97.5546C208.204 98.3605 207.64 99.0701 207.002 99.662L205.515 95.7682L206.958 93.1463L208.617 97.4933ZM208.857 97.1833L207.168 92.7638L208.446 90.441C209.876 92.6865 210.009 94.8991 208.857 97.1834L208.857 97.1833ZM208.152 90.2733L206.872 92.596L202.263 93.4776C203.576 91.2845 205.507 90.2313 208.152 90.2732L208.152 90.2733ZM201.1 96.7341C201.101 96.7351 201.101 96.7351 201.102 96.7343L205.007 95.9875L203.563 98.6102L201.111 99.0783C200.99 98.3208 200.986 97.5295 201.1 96.7342L201.1 96.7341Z" fill="#8F9753"/>
</svg>
