<svg width="40" height="40" viewBox="0 0 40 40" fill="none" xmlns="http://www.w3.org/2000/svg">
<path d="M25.8333 23.3333H24.5166L24.05 22.8833C25.0915 21.6733 25.8528 20.248 26.2792 18.7094C26.7056 17.1708 26.7867 15.5569 26.5166 13.9833C25.7333 9.35 21.8666 5.65 17.2 5.08334C15.5593 4.87578 13.8929 5.04629 12.3283 5.58182C10.7637 6.11735 9.34237 7.0037 8.17301 8.17306C7.00366 9.34241 6.1173 10.7638 5.58177 12.3284C5.04624 13.893 4.87573 15.5594 5.08329 17.2C5.64996 21.8667 9.34996 25.7333 13.9833 26.5167C15.5569 26.7868 17.1707 26.7057 18.7093 26.2793C20.2479 25.8528 21.6732 25.0916 22.8833 24.05L23.3333 24.5167V25.8333L30.4166 32.9167C31.1 33.6 32.2166 33.6 32.9 32.9167C33.5833 32.2333 33.5833 31.1167 32.9 30.4333L25.8333 23.3333ZM15.8333 23.3333C11.6833 23.3333 8.33329 19.9833 8.33329 15.8333C8.33329 11.6833 11.6833 8.33334 15.8333 8.33334C19.9833 8.33334 23.3333 11.6833 23.3333 15.8333C23.3333 19.9833 19.9833 23.3333 15.8333 23.3333Z" fill="#44463A"/>
</svg>
